<?xml version="1.0" encoding="utf-8"?>
<!-- Generator: Adobe Illustrator 19.1.0, SVG Export Plug-In . SVG Version: 6.00 Build 0)  -->
<svg version="1.1" id="Layer_1" xmlns="http://www.w3.org/2000/svg" xmlns:xlink="http://www.w3.org/1999/xlink" x="0px" y="0px"
	 viewBox="0 0 300 300" style="enable-background:new 0 0 300 300;" xml:space="preserve">
<style type="text/css">
	.st0{opacity:0.2;}
	.st1{fill:#4A2D29;}
	.st2{opacity:0.2;fill:#694534;}
	.st3{opacity:0.5;fill:#672E1E;}
	.st4{fill:#D8B56A;}
	.st5{opacity:0.8;fill:#F2E0B8;}
	.st6{fill:#E4C27A;}
	.st7{fill:#F2E0B8;}
</style>
<ellipse class="st0" cx="149.8" cy="152.9" rx="143.3" ry="141.2"/>
<g>
	<path class="st1" d="M292.5,145.2c0,5.1,1.3,10.1,0.7,15.1c-1.1,9.7-4.5,18.8-6.9,28.3c-1.8,7.4-3,15-6.1,22.1
		c-2.9,6.7-7.6,11.1-12.9,15.9c-4,3.7-5.9,9-9.3,13.3c-3.8,4.9-9,8.4-13.6,12.4c-5.7,5-10.2,9.6-17.7,11.8c-7,2.1-14.2,3.8-21,6.7
		c-7,2.9-13.6,7-21.4,7.5c-9.4,0.7-19.2,0.1-28.7,0.5c-9.8,0.4-18.6-1.7-28.2-3.2c-16-2.5-28.3-4.8-42.2-13.5
		c-4.3-2.7-8.6-5.9-12.5-9.1c-4-3.2-8.2-6.5-11.8-10.1c-3.6-3.6-6.5-8.1-9.7-12.1c-7.7-9.7-9.9-21.6-15.4-32.4
		c-4-7.9-12.7-18.7-12.3-27.8c0.2-3.8,1.5-7.4,1.2-11.2c-0.3-4.1-2.2-7.9-2.8-12c-1.2-8.5,1.6-16.9,3.1-25.2
		c1.3-6.7,0.4-13.7,2.3-20.3c1.8-6.4,7.1-10.1,10-15.9c3.3-6.7,4.8-13.8,9.8-19.5c5.3-6,12-10.5,17.7-16.2
		c8.1-8.1,16.3-16,25.7-22.4c8.4-5.7,17.3-8.6,27.1-11.1c9.7-2.5,19.2-6.3,29.2-7.5c13.9-1.8,28.2,1.6,41.7,4.7
		c8.8,2,18.6,1.2,26.8,5c7.8,3.6,12.6,11.1,19,16.4c6.8,5.7,15.1,9.2,22.1,14.5c6.9,5.2,9.4,12,13,19.6c2.9,6.1,8.2,9.2,11.7,14.6
		c4.1,6.3,5.2,15.8,7,23c1.6,6.5,3.5,12.9,4.2,19.6C293.6,133.1,292.5,139,292.5,145.2z"/>
	<path class="st2" d="M288,145.2c0,5,1.3,9.8,0.7,14.6c-1,9.4-4.4,18.2-6.6,27.3c-1.8,7.2-2.9,14.5-5.9,21.4
		c-2.8,6.5-7.4,10.7-12.4,15.4c-3.9,3.6-5.7,8.7-9,12.8c-3.7,4.7-8.7,8.1-13.1,12c-5.5,4.9-9.9,9.3-17.1,11.4
		c-6.8,2-13.7,3.7-20.3,6.5c-6.7,2.8-13.2,6.8-20.6,7.3c-9.1,0.6-18.6,0.1-27.7,0.5c-9.5,0.4-18-1.6-27.3-3.1
		c-15.5-2.4-27.4-4.6-40.8-13.1c-4.2-2.6-8.3-5.7-12.1-8.8c-3.8-3.1-7.9-6.3-11.4-9.7c-3.5-3.5-6.3-7.8-9.4-11.7
		c-7.5-9.4-9.6-20.9-14.9-31.3c-3.9-7.6-12.2-18.1-11.9-26.8c0.2-3.7,1.5-7.1,1.2-10.8c-0.3-4-2.1-7.6-2.7-11.6
		c-1.1-8.3,1.5-16.4,3-24.4c1.2-6.5,0.4-13.3,2.2-19.7c1.7-6.2,6.9-9.8,9.7-15.3c3.2-6.4,4.6-13.4,9.5-18.9
		c5.1-5.8,11.6-10.2,17.1-15.6C75.9,45.9,83.9,38.2,93,32c8.1-5.5,16.8-8.3,26.2-10.7c9.3-2.4,18.6-6.1,28.2-7.3
		c13.5-1.7,27.3,1.5,40.3,4.5c8.5,1.9,17.9,1.2,26,4.8c7.5,3.4,12.2,10.7,18.4,15.9c6.6,5.5,14.6,8.9,21.4,14
		c6.7,5,9.1,11.6,12.6,18.9c2.8,5.9,7.9,8.9,11.3,14.1c4,6,5,15.3,6.8,22.2c1.6,6.2,3.4,12.5,4.1,18.9
		C289.1,133.4,288,139.2,288,145.2z"/>
	<path class="st2" d="M280.5,145.1c0,4.7,1.2,9.2,0.7,13.8c-1,8.8-4.1,17.2-6.3,25.7c-1.7,6.8-2.8,13.7-5.6,20.1
		c-2.7,6.1-6.9,10.1-11.7,14.5c-3.7,3.4-5.4,8.2-8.4,12.1c-3.5,4.4-8.2,7.6-12.4,11.3c-5.1,4.6-9.3,8.8-16.1,10.8
		c-6.4,1.9-12.9,3.5-19.1,6.1c-6.4,2.6-12.4,6.4-19.5,6.9c-8.6,0.6-17.5,0.1-26.1,0.5c-8.9,0.4-17-1.5-25.7-2.9
		c-14.6-2.3-25.8-4.3-38.5-12.3c-3.9-2.5-7.8-5.4-11.4-8.3c-3.6-2.9-7.5-5.9-10.7-9.2c-3.3-3.3-6-7.4-8.8-11
		c-7-8.8-9.1-19.7-14.1-29.5c-3.7-7.2-11.5-17.1-11.2-25.3c0.1-3.4,1.4-6.7,1.1-10.2c-0.3-3.8-2-7.2-2.5-10.9
		c-1.1-7.8,1.4-15.4,2.8-23c1.2-6.1,0.4-12.5,2.1-18.5c1.6-5.8,6.5-9.2,9.1-14.5c3.1-6.1,4.4-12.6,9-17.8c4.8-5.5,11-9.6,16.1-14.7
		c7.3-7.3,14.8-14.6,23.4-20.4c7.7-5.2,15.8-7.8,24.7-10.1c8.8-2.2,17.5-5.7,26.6-6.9c12.7-1.6,25.7,1.4,38,4.2
		c8,1.8,16.9,1.1,24.5,4.6c7.1,3.2,11.5,10.1,17.3,15c6.2,5.2,13.7,8.4,20.2,13.2c6.3,4.7,8.6,10.9,11.9,17.8
		c2.6,5.5,7.4,8.4,10.7,13.3c3.7,5.7,4.8,14.4,6.4,20.9c1.5,5.9,3.2,11.8,3.9,17.8C281.5,134,280.5,139.4,280.5,145.1z"/>
	<path class="st1" d="M150.1,111.8c-4.1-0.8-8.8-0.6-13-0.8c-11.2-0.8-29.4-5-37.5,5.7c-3.2,4.1-1.6,9-0.6,13.6
		c0.6,2.7,0.9,5.5,1.3,8.3c0.2,1.4,0.2,5.6,0.9,6.5c-4.8-6.5-9.7-12.8-13.8-19.8c-2.2-3.8-4-7.8-5.7-11.8c-3-7-5.8-14.2-10.3-20.5
		c-4.1-5.6-16.2-18.1-23-8.5c-4,5.7-3.5,13.3-4.6,19.9c-1.2,6.9-3.4,13.8-7.3,19.6c-1.4,2-4,4.2-5,6.3c2.9-6.8,5.5-13.5,6.5-20.8
		c1.6-11.8-0.7-26.2,8.6-35.4c3.6-3.6,8.6-5.5,13.6-3.9c4.8,1.6,7.7,5.7,10.8,9.3c3.7,4.2,7.2,8.6,10.4,13.1c3,4.3,5.3,9.1,8.9,12.9
		c2.8,2.8,7,2.5,10.6,2c7.7-1,15.2-1,22.5-0.3C132.3,108.2,141,109.9,150.1,111.8z M90.8,203c1.4-7,0.9-17.3-7.6-12.9
		c-3,1.5-5.6,3.3-9.1,2.7c-4.4-0.7-7.5,2-11.4,3.2c-3.7,1.1-7.7,0.7-11.5,1.2c-3.6,0.5-7.2,1.5-10.8,2.2c1.5,3,2.7,6,3.9,9
		c6.8,1.1,12.4-0.4,18.6-3.1c5.3-2.3,11.7-3.7,15.8,1.6c4.1,5.4,1.7,14.2,2,20.5c0.2,4.1,1.5,8.1,1.9,12.2c0.4,3.9-0.3,7.7-0.5,11.6
		c-0.2,3-0.8,4.6,2.1,6.2c1.6-3.9,1.5-9,1.7-13.2c0.6-12.4-2.1-25.2,3.6-36.8C89.9,206.4,90.4,204.8,90.8,203z M278.6,134.2
		c-3.5-2.2-7-4.8-10.6-5.6c-9-2.1-17.7,4.7-24.9,9.1c-7,4.3-17.4,14-24.2,3.5c-4.6-7.1,0.5-16.6,3.5-23.3c-2.7,5.9-8.5,10.3-10,16.7
		c-2,8.9,4.8,15.3,10.6,20.6c0.8,0.7,1.4,1.2,1.4,1.2s-0.1,0.9-0.1,2.2c-0.6,9.2-9.1,15.8-15.9,20.8c-10.6,7.8-21,16.7-28.4,27.7
		c-3.6,5.3-7,11.2-8.6,17.4c-1.9,7.8-2.8,15.8-3.3,23.8c-0.4,5.4,0,11.2-2,16.3c-2.3,5.9-7,8.3-11.9,11.6
		c11.5,0.3,25.9,1.7,36.9-1.6c-3.2-0.4-7.7,1-10.6,0c-5.1-1.7-7.2-9.5-6-14.2c1.7-6.5,7.6-5.9,13-5c7.3,1.2,12.7-3,17.6-8
		c-12.7,5.5-23.8,5.1-23.7-11.7c0.3-30.9,30.6-42.4,47.3-63.5c1.9-2.4,4-5,5.5-7.7c3.4-6.2,3.4-11.7,9.1-16.8
		c11.8-10.4,32.2-9.7,46.5-6c0.3-1.5,0.4-3,0.3-4.5C286,138.3,282.3,136.4,278.6,134.2z M180.7,92.7c-0.1,0.3-0.3,0.5-0.4,0.8
		c6.3-3.5,12.8-6.7,17.9-11.9c3-3,6.2-5.2,10-7c4.6-2.1,10.1-0.7,15-1.7c4.7-1,9.4-3.2,12.3-7c2.1-2.8,3.3-6.1,3.8-9.5
		c0.4-2.6,0-5.2-0.1-7.8c0-0.6,0.5-5.7,0-6c-2.4-1.5-4.8-3.1-7.1-5c-0.5-0.4-1-0.9-1.5-1.4c1.5,1.4,0.2,9.4,0.1,11.4
		c-0.3,6-1.7,12.5-6.1,16.9c-4.5,4.5-10.9,6.3-17,7.5C196.2,74,186.1,82.7,180.7,92.7z M144.5,12.7c-6.8,1.2-13.5,3.5-20.2,5.4
		c2,0.3,3.9,0.8,5.5,1.3c4.7,3.2,4.6,8.7,4.4,13.9c-0.3,6.7,0.9,13.1,1.5,19.7c0.4,4.8,0,9.6-0.4,14.4c-0.3,3.8-2.8,10.9-0.2,14.2
		c-0.8-0.9,2.1-8.6,2.4-9.9c0.8-3.5,1.5-7,1.9-10.6c0.7-7.3,0-14.6-0.2-21.9c-0.2-6.6,0.5-10.8,3.6-16.6
		C144.3,19.6,144.3,16,144.5,12.7z"/>
	<g>
		<path class="st3" d="M100.4,62.6c-0.8,0.1-1.3,0.9-0.9,1.6c0.8,1.4,3.9,2.5,3.4,4.5c-0.6,2.1-3.7,1.8-5.1,1.2
			c-1-0.4-1.5,1-0.9,1.6c2.3,2.7,6.9,1.3,8.6-1.4C107.2,67.2,103.7,62.3,100.4,62.6z"/>
		<path class="st4" d="M103.5,66c-1.5-2.1-4.2-6.6-7.2-6.3c-4.2,0.3-6.1,5.1-3.7,8.5c1.8,2.5,5.5,4.7,8.6,3.4c1-0.4,1.7-0.8,2.3-1.7
			C104.1,68.7,104.2,67.1,103.5,66z"/>
		<path class="st5" d="M95.9,60.6c-0.8,0.1-1.7,1-2.3,1.6c-0.4,0.4-0.6,0.8-0.8,1.3c-0.1,0.2-0.1,0.4-0.1,0.6c0,0.2,0.1,0.5,0,0.7
			c-0.1,0.8,0.9,0.9,1.4,0.4c0.5-0.3,0.9-0.8,1.4-1.2c0.5-0.5,1.2-0.8,1.7-1.3C98,61.7,97.1,60.4,95.9,60.6z"/>
		<path class="st6" d="M103.5,69.8c0.6-1.1,0.7-2.7,0-3.8c-0.8-1.2-2-3.1-3.5-4.5c1,2.2,2.3,4.4,1.1,6.8c-0.7,1.5-3.4,2.6-5.6,2.5
			c1.8,1.1,3.8,1.5,5.7,0.7C102.2,71.1,102.9,70.7,103.5,69.8z"/>
	</g>
	<g>
		<path class="st3" d="M122.9,152.3c-0.4-0.6-1.4-0.7-1.8,0c-0.8,1.4-0.2,4.6-2.1,5.2c-2.1,0.6-3.4-2.2-3.7-3.8
			c-0.2-1-1.6-0.8-1.9,0c-1.1,3.3,2.5,6.6,5.6,6.7C122.5,160.5,124.8,155,122.9,152.3z"/>
		<path class="st4" d="M121.6,156.7c1-2.3,3.5-6.9,1.8-9.4c-2.4-3.5-7.5-2.7-9.2,1.1c-1.2,2.9-1.2,7.1,1.5,9.1
			c0.8,0.6,1.6,1.1,2.6,1.1C119.6,158.6,121.1,157.8,121.6,156.7z"/>
		<path class="st5" d="M122.4,147.4c-0.6-0.7-1.7-1-2.5-1.1c-0.5-0.1-1-0.1-1.5,0c-0.2,0-0.4,0.1-0.6,0.2c-0.2,0.1-0.4,0.3-0.6,0.4
			c-0.7,0.3-0.3,1.3,0.3,1.4c0.5,0.3,1.1,0.4,1.7,0.6c0.7,0.2,1.3,0.6,2,0.8C122.5,149.7,123.2,148.3,122.4,147.4z"/>
		<path class="st6" d="M118.3,158.6c1.3,0,2.7-0.8,3.3-1.9c0.6-1.3,1.6-3.3,2.1-5.3c-1.4,2-2.6,4.2-5.3,4.4c-1.6,0.1-4-1.6-5-3.6
			c0,2,0.7,4.1,2.3,5.3C116.5,158.2,117.3,158.6,118.3,158.6z"/>
	</g>
	<g>
		<path class="st3" d="M145.5,188.7c-0.6-1.5-2.1-2.8-3.7-2.3c-0.9,0.3-1.2,1.2-0.8,2c0.3,0.7,1.1,1.2,1.4,1.6c0-0.1-0.1,0,0,0
			c0,0.1-0.1,0.3-0.2,0.4c-0.4,0.5-0.8,0.7-1.4,0.9c-0.6,0.1-1.7,0.6-1.6,1.4c0.2,1.5,1.8,1.6,3,1.3c1.2-0.3,2.3-1,3-2
			C145.7,191.1,145.9,189.8,145.5,188.7z"/>
		<path class="st4" d="M144.2,189.4c-0.5-1.2-1-2.2-2-3.1c-1-0.9-2.9-1.7-4.2-1c-0.2,0.1-0.4,0.3-0.5,0.4c-0.8,0.1-1.3,0.8-1.4,1.6
			c-0.1,0.6,0,1.3,0.2,1.9c0.1,0.3,0.2,0.6,0.3,0.9c0,0.1,0,0.2,0.1,0.2c-0.4,1.5,0.8,3.2,2.4,3.1c1.4-0.1,2.7-0.7,4-1.3
			C143.9,191.8,144.6,190.4,144.2,189.4z"/>
		<path class="st5" d="M140,186.4c-1-1.1-2.7,0.6-1.6,1.6c0.5,0.5,1.3,1.1,2,0.4C141,187.7,140.4,186.9,140,186.4z"/>
		<path class="st6" d="M143,192.2c0.9-0.4,1.5-1.9,1.2-2.8c-0.2-0.4-0.3-0.7-0.5-1c-0.8,0.6-1.7,1.2-2.6,1.6
			c-1.4,0.7-2.9,0.8-4.5,0.6c-0.3,1.4,0.9,3,2.4,2.9C140.5,193.5,141.8,192.8,143,192.2z"/>
	</g>
	<g>
		<path class="st3" d="M199.2,42.9c-0.6-1.5-2.1-2.8-3.7-2.3c-0.9,0.3-1.2,1.2-0.8,2c0.3,0.7,1.1,1.2,1.4,1.6c0-0.1-0.1,0,0,0
			c0,0.1-0.1,0.3-0.2,0.4c-0.4,0.5-0.8,0.7-1.4,0.9c-0.6,0.1-1.7,0.6-1.6,1.4c0.2,1.5,1.8,1.6,3,1.3c1.2-0.3,2.3-1,3-2
			C199.3,45.3,199.6,44,199.2,42.9z"/>
		<path class="st4" d="M197.9,43.6c-0.5-1.2-1-2.2-2-3.1c-1-0.9-2.8-1.7-4.2-1c-0.2,0.1-0.4,0.3-0.5,0.4c-0.8,0.1-1.3,0.8-1.4,1.6
			c-0.1,0.6,0,1.3,0.2,1.9c0.1,0.3,0.2,0.6,0.3,0.9c0,0.1,0,0.2,0.1,0.2c-0.4,1.5,0.8,3.2,2.4,3.1c1.4-0.1,2.7-0.7,4-1.3
			C197.6,46,198.2,44.6,197.9,43.6z"/>
		<path class="st5" d="M193.6,40.6c-1-1.1-2.7,0.6-1.6,1.6c0.5,0.5,1.3,1.1,2,0.4C194.7,41.9,194.1,41.1,193.6,40.6z"/>
		<path class="st6" d="M196.7,46.4c0.9-0.4,1.5-1.9,1.2-2.8c-0.2-0.4-0.3-0.7-0.5-1c-0.8,0.6-1.7,1.2-2.6,1.6
			c-1.4,0.7-2.9,0.8-4.5,0.6c-0.3,1.4,0.9,3,2.4,2.9C194.2,47.7,195.4,47,196.7,46.4z"/>
	</g>
	<g>
		<path class="st3" d="M262.8,101.2c-0.6-1.5-2.1-2.8-3.7-2.3c-0.9,0.3-1.2,1.2-0.8,2c0.3,0.7,1.1,1.2,1.4,1.6c0-0.1-0.1,0,0,0
			c0,0.1-0.1,0.3-0.2,0.4c-0.4,0.5-0.8,0.7-1.4,0.9c-0.6,0.1-1.7,0.6-1.6,1.4c0.2,1.5,1.8,1.6,3,1.3c1.2-0.3,2.3-1,3-2
			C262.9,103.6,263.2,102.3,262.8,101.2z"/>
		<path class="st4" d="M261.4,101.9c-0.5-1.2-1-2.2-2-3.1c-1-0.9-2.9-1.7-4.2-1c-0.2,0.1-0.4,0.3-0.5,0.4c-0.8,0.1-1.3,0.8-1.4,1.6
			c-0.1,0.6,0,1.3,0.2,1.9c0.1,0.3,0.2,0.6,0.3,0.9c0,0.1,0,0.2,0.1,0.2c-0.4,1.5,0.8,3.2,2.4,3.1c1.4-0.1,2.7-0.7,4-1.3
			C261.2,104.3,261.8,102.9,261.4,101.9z"/>
		<path class="st5" d="M257.2,98.9c-1-1.1-2.7,0.6-1.6,1.6c0.5,0.5,1.3,1.1,2,0.4C258.3,100.2,257.7,99.4,257.2,98.9z"/>
		<path class="st6" d="M260.3,104.7c0.9-0.4,1.5-1.9,1.2-2.8c-0.2-0.4-0.3-0.7-0.5-1c-0.8,0.6-1.7,1.2-2.6,1.6
			c-1.4,0.7-2.9,0.8-4.5,0.6c-0.3,1.4,0.9,3,2.4,2.9C257.7,106,259,105.3,260.3,104.7z"/>
	</g>
	<g>
		<path class="st3" d="M200.5,164.4c-0.4-0.5-1.4-0.7-1.9-0.2c-0.5,0.4-0.8,0.7-1,1.3c0,0.1-0.1,0.3-0.1,0.4c0,0-0.1,0.2-0.1,0.3
			c0,0.1-0.1,0.2-0.1,0.3c0,0-0.1,0.2-0.1,0.2c-0.1,0.1-0.2,0.1-0.2,0.2c-0.2,0.2-0.1,0.1,0,0c-1.3,0.4-1.1,2.3,0.3,2.4
			c1.1,0.1,2.1-0.3,2.9-1.1C201,167.2,201.5,165.6,200.5,164.4z"/>
		<path class="st6" d="M197.4,162.9c-2.8-0.9-6.8-0.4-5.7,3.1c0.6,2,4,4.7,6.1,3c1-0.8,1.6-1.9,2.1-3.1
			C200.3,164.6,199.1,163.5,197.4,162.9z"/>
		<path class="st7" d="M195.2,164.8c-0.5-0.5-1.1-0.8-1.8-1.1c-0.5-0.2-1.1,0.1-1.3,0.5c-0.4,0.6-0.1,1.2,0.4,1.6
			c0.3,0.2,0.7,0.7,1.1,0.9C195,167.4,196.2,166,195.2,164.8z"/>
		<path class="st6" d="M197.8,163.1c-0.6,2.8-1.3,5.7-3.8,5.7c1.2,0.8,2.6,1.1,3.7,0.2c1-0.8,1.6-1.9,2.1-3.1
			C200.3,164.7,199.3,163.7,197.8,163.1z"/>
	</g>
	<g>
		<path class="st3" d="M77.3,219.5c-0.3-0.3-1-0.5-1.4-0.2c-0.4,0.3-0.6,0.5-0.7,0.9c0,0.1,0,0.2-0.1,0.3c0,0-0.1,0.2-0.1,0.2
			c0,0.1-0.1,0.1-0.1,0.2c0,0-0.1,0.1-0.1,0.2c-0.1,0.1-0.1,0.1-0.2,0.2c-0.1,0.1-0.1,0,0,0c-0.9,0.3-0.8,1.6,0.2,1.7
			c0.8,0.1,1.5-0.2,2-0.8C77.6,221.4,78,220.3,77.3,219.5z"/>
		<path class="st6" d="M75.1,218.5c-2-0.6-4.7-0.3-4,2.2c0.4,1.4,2.8,3.3,4.2,2.1c0.7-0.6,1.1-1.3,1.5-2.2
			C77.2,219.6,76.3,218.9,75.1,218.5z"/>
		<path class="st7" d="M73.6,219.8c-0.3-0.4-0.8-0.6-1.2-0.8c-0.3-0.1-0.7,0.1-0.9,0.4c-0.2,0.4-0.1,0.9,0.3,1.1
			c0.2,0.1,0.5,0.5,0.8,0.7C73.4,221.6,74.3,220.6,73.6,219.8z"/>
		<path class="st6" d="M75.4,218.6c-0.4,1.9-0.9,4-2.6,4c0.9,0.6,1.8,0.8,2.6,0.1c0.7-0.6,1.1-1.3,1.5-2.2
			C77.1,219.7,76.4,219,75.4,218.6z"/>
	</g>
	<g>
		<path class="st3" d="M224.8,209c-0.3-0.3-1-0.5-1.4-0.2c-0.4,0.3-0.6,0.5-0.7,0.9c0,0.1,0,0.2-0.1,0.3c0,0-0.1,0.2-0.1,0.2
			c0,0.1-0.1,0.1-0.1,0.2c0,0-0.1,0.1-0.1,0.2c-0.1,0.1-0.1,0.1-0.2,0.2c-0.1,0.1-0.1,0,0,0c-0.9,0.3-0.8,1.6,0.2,1.7
			c0.8,0.1,1.5-0.2,2-0.8C225.1,211,225.5,209.8,224.8,209z"/>
		<path class="st6" d="M222.6,208c-2-0.6-4.7-0.3-4,2.2c0.4,1.4,2.8,3.3,4.2,2.1c0.7-0.6,1.1-1.3,1.5-2.2
			C224.7,209.2,223.8,208.4,222.6,208z"/>
		<path class="st7" d="M221.1,209.4c-0.3-0.4-0.8-0.6-1.2-0.8c-0.3-0.1-0.7,0.1-0.9,0.4c-0.2,0.4-0.1,0.9,0.3,1.1
			c0.2,0.1,0.5,0.5,0.8,0.7C220.9,211.2,221.8,210.1,221.1,209.4z"/>
		<path class="st6" d="M222.9,208.1c-0.4,1.9-0.9,4-2.6,4c0.9,0.6,1.8,0.8,2.6,0.1c0.7-0.6,1.1-1.3,1.5-2.2
			C224.7,209.3,223.9,208.6,222.9,208.1z"/>
	</g>
	<g>
		<path class="st3" d="M214.1,260.6c-0.3-0.3-1-0.5-1.4-0.2c-0.4,0.3-0.6,0.5-0.7,0.9c0,0.1,0,0.2-0.1,0.3c0,0-0.1,0.2-0.1,0.2
			c0,0.1-0.1,0.1-0.1,0.2c0,0-0.1,0.1-0.1,0.2c-0.1,0.1-0.1,0.1-0.2,0.2c-0.1,0.1-0.1,0,0,0c-0.9,0.3-0.8,1.6,0.2,1.7
			c0.8,0.1,1.5-0.2,2-0.8C214.5,262.6,214.8,261.5,214.1,260.6z"/>
		<path class="st6" d="M211.9,259.6c-2-0.6-4.7-0.3-4,2.2c0.4,1.4,2.8,3.3,4.2,2.1c0.7-0.6,1.1-1.3,1.5-2.2
			C214,260.8,213.1,260,211.9,259.6z"/>
		<path class="st7" d="M210.4,261c-0.3-0.4-0.8-0.6-1.2-0.8c-0.3-0.1-0.7,0.1-0.9,0.4c-0.2,0.4-0.1,0.9,0.3,1.1
			c0.2,0.1,0.5,0.5,0.8,0.7C210.3,262.8,211.1,261.7,210.4,261z"/>
		<path class="st6" d="M212.2,259.8c-0.4,1.9-0.9,4-2.6,4c0.9,0.6,1.8,0.8,2.6,0.1c0.7-0.6,1.1-1.3,1.5-2.2
			C214,260.9,213.3,260.2,212.2,259.8z"/>
	</g>
	<g>
		<path class="st3" d="M70.3,154.8c-0.4-0.5-1.4-0.6-1.9-0.2c-0.5,0.4-0.8,0.7-0.9,1.3c0,0.1-0.1,0.3-0.1,0.4c0,0-0.1,0.2-0.1,0.3
			c0,0.1-0.1,0.2-0.1,0.2c0,0-0.1,0.2-0.1,0.2c-0.1,0.1-0.2,0.1-0.2,0.2c-0.2,0.2-0.1,0.1,0,0c-1.3,0.4-1,2.3,0.3,2.3
			c1.1,0.1,2.1-0.2,2.8-1.1C70.8,157.6,71.3,156,70.3,154.8z"/>
		<path class="st6" d="M67.3,153.4c-2.7-0.9-6.6-0.4-5.5,3c0.6,2,3.9,4.6,5.9,2.9c1-0.8,1.6-1.8,2-3C70.2,155,68.9,154,67.3,153.4z"
			/>
		<path class="st7" d="M65.2,155.3c-0.5-0.5-1.1-0.8-1.7-1.1c-0.5-0.2-1,0.1-1.3,0.5c-0.3,0.6-0.1,1.2,0.4,1.6
			c0.3,0.2,0.7,0.7,1.1,0.9C64.9,157.8,66.2,156.4,65.2,155.3z"/>
		<path class="st6" d="M67.7,153.6c-0.5,2.7-1.3,5.5-3.7,5.5c1.2,0.8,2.6,1.1,3.6,0.2c1-0.8,1.6-1.8,2-3
			C70.1,155.1,69.1,154.2,67.7,153.6z"/>
	</g>
	<g>
		<path class="st3" d="M137.6,246.6c0.2-0.6-0.2-1.5-0.8-1.7c-0.6-0.2-1-0.3-1.6-0.1c-0.1,0-0.3,0.1-0.4,0.1c0,0-0.2,0-0.3,0.1
			c-0.1,0-0.2,0-0.3,0c0,0-0.2,0-0.3,0c-0.1,0-0.2-0.1-0.3-0.1c-0.3-0.1-0.1,0-0.1,0c-1.1-0.9-2.5,0.3-1.8,1.5
			c0.5,0.9,1.3,1.6,2.4,1.8C135.6,248.4,137.2,248,137.6,246.6z"/>
		<path class="st6" d="M137.2,243.3c-0.7-2.8-3.2-5.8-5.5-3.1c-1.3,1.6-1.8,5.7,0.6,6.5c1.2,0.4,2.4,0.4,3.6,0.1
			C137.4,246.6,137.6,245,137.2,243.3z"/>
		<path class="st7" d="M134.5,242.5c0.2-0.7,0.1-1.4,0-2c-0.1-0.5-0.6-0.8-1.1-0.8c-0.7,0-1.1,0.6-1.1,1.2c0,0.3-0.2,0.9-0.2,1.4
			C132.3,243.6,134.1,243.9,134.5,242.5z"/>
		<path class="st6" d="M137.3,243.7c-2.5,1-5.4,1.9-6.6-0.2c0,1.4,0.5,2.7,1.7,3.2c1.2,0.4,2.4,0.4,3.6,0.1
			C137.3,246.6,137.6,245.2,137.3,243.7z"/>
	</g>
	<g>
		<path class="st3" d="M263.4,172.2c-0.5-0.5-1.7-0.6-2.3-0.2c-0.6,0.4-1,0.7-1.2,1.3c0,0.1-0.1,0.3-0.1,0.4c0,0-0.1,0.2-0.1,0.3
			c-0.1,0.1-0.1,0.2-0.2,0.3c0,0-0.1,0.2-0.2,0.2c-0.1,0.1-0.2,0.2-0.3,0.2c-0.3,0.2-0.1,0,0,0c-1.6,0.4-1.3,2.3,0.4,2.4
			c1.3,0.1,2.6-0.2,3.4-1.1C264,174.9,264.6,173.3,263.4,172.2z"/>
		<path class="st6" d="M259.6,170.8c-3.4-0.9-8.1-0.3-6.8,3c0.8,2,4.8,4.6,7.3,2.9c1.2-0.8,2-1.8,2.5-3
			C263.2,172.4,261.6,171.3,259.6,170.8z"/>
		<path class="st7" d="M257,172.6c-0.6-0.5-1.4-0.8-2.1-1c-0.6-0.2-1.3,0.1-1.6,0.5c-0.4,0.6-0.1,1.2,0.5,1.6
			c0.3,0.2,0.8,0.7,1.4,0.9C256.7,175.1,258.2,173.7,257,172.6z"/>
		<path class="st6" d="M260.1,170.9c-0.7,2.7-1.6,5.5-4.5,5.6c1.5,0.8,3.2,1.1,4.5,0.2c1.2-0.8,2-1.8,2.5-3
			C263.1,172.5,261.9,171.5,260.1,170.9z"/>
	</g>
	<g>
		<path class="st3" d="M63.6,124.5c-0.5-0.5-1.7-0.6-2.3-0.2c-0.6,0.4-1,0.7-1.2,1.3c0,0.1-0.1,0.3-0.1,0.4c0,0-0.1,0.2-0.1,0.3
			c-0.1,0.1-0.1,0.2-0.2,0.3c0,0-0.1,0.2-0.2,0.2c-0.1,0.1-0.2,0.2-0.3,0.2c-0.3,0.2-0.1,0,0,0c-1.6,0.4-1.3,2.3,0.4,2.4
			c1.3,0.1,2.6-0.2,3.4-1.1C64.2,127.2,64.8,125.6,63.6,124.5z"/>
		<path class="st6" d="M59.8,123.1c-3.4-0.9-8.1-0.3-6.8,3c0.8,2,4.8,4.6,7.3,2.9c1.2-0.8,2-1.8,2.5-3
			C63.4,124.7,61.9,123.6,59.8,123.1z"/>
		<path class="st7" d="M57.3,124.9c-0.6-0.5-1.4-0.8-2.1-1c-0.6-0.2-1.3,0.1-1.6,0.5c-0.4,0.6-0.1,1.2,0.5,1.6
			c0.3,0.2,0.8,0.7,1.4,0.9C57,127.4,58.5,126,57.3,124.9z"/>
		<path class="st6" d="M60.4,123.2c-0.7,2.7-1.6,5.5-4.5,5.6c1.5,0.8,3.2,1.1,4.5,0.2c1.2-0.8,2-1.8,2.5-3
			C63.4,124.8,62.1,123.8,60.4,123.2z"/>
	</g>
	<g>
		<path class="st3" d="M164.7,91.2c0-0.7-0.7-1.7-1.4-1.9c-0.7-0.2-1.2-0.2-1.8,0c-0.1,0.1-0.2,0.2-0.4,0.2c0,0-0.2,0.1-0.3,0.1
			c-0.1,0-0.2,0.1-0.3,0.1c0,0-0.2,0-0.3,0c-0.1,0-0.2,0-0.3,0c-0.3,0-0.1,0-0.1,0c-1.4-0.9-2.5,0.6-1.5,1.9c0.8,1,1.9,1.7,3.1,1.8
			C163.2,93.4,164.7,92.8,164.7,91.2z"/>
		<path class="st6" d="M163.2,87.4c-1.6-3.1-5.3-6.2-6.8-3c-0.9,1.9-0.1,6.7,2.8,7.3c1.5,0.3,2.7,0.2,3.9-0.2
			C164.5,91.2,164.2,89.3,163.2,87.4z"/>
		<path class="st7" d="M160.1,86.8c0-0.7-0.3-1.6-0.7-2.3c-0.3-0.6-1-0.9-1.5-0.8c-0.7,0.1-1,0.7-0.8,1.4c0.1,0.4,0,1.1,0.3,1.6
			C158.1,88.3,160.1,88.4,160.1,86.8z"/>
		<path class="st6" d="M163.4,87.9c-2.4,1.3-5.1,2.6-7.2,0.4c0.4,1.6,1.4,3.1,2.9,3.4c1.5,0.3,2.7,0.2,3.9-0.2
			C164.3,91.2,164.2,89.6,163.4,87.9z"/>
	</g>
	<g>
		<path class="st3" d="M177.5,124.3c-1.7-1.6-4.3,1-2.6,2.6c0.4,0.4,0.9,0.8,1.2,1.4c-0.1,0-0.2,0.1-0.2,0.2c-1.1,0.7-3,0.7-3.6,2
			c-0.2,0.4-0.1,0.8,0.2,1.2c1.4,1.7,6,0.8,7.3-0.4C181.9,129.3,179.2,126,177.5,124.3z"/>
		<path class="st6" d="M176.1,123.9c-0.8-1.2-2.6-1.6-3.7-0.5c-1.1,1.1-2.2,2.3-3,3.5c-0.4,0.6-0.4,1.3-0.2,2
			c-0.2,0.8,0.1,1.7,0.6,2.3c1.3,1.3,3.8,0.8,5.6,0.7c1.3,0,2.5-1.1,2.5-2.5C177.8,127.6,177.2,125.5,176.1,123.9z"/>
		<path class="st7" d="M173.6,124.4c-0.4-0.1-0.8,0-1,0.3c-1,0.9-1.7,2-2.2,3.2c-0.4,1,1.1,1.5,1.7,0.7c0.4-0.7,1-1.3,1.6-1.9
			c0.4-0.4,0.8-0.7,0.8-1.2C174.4,124.9,174.1,124.6,173.6,124.4z"/>
		<path class="st6" d="M170.3,131.4c0,0-0.1,0-0.1,0c1.4,1,3.7,0.6,5.3,0.5c1.3,0,2.5-1.1,2.5-2.5c0-1.1-0.3-2.2-0.7-3.3
			c-0.5,0.9-0.9,1.9-1.5,2.7C174.4,130.5,172.5,132,170.3,131.4z"/>
	</g>
	<g>
		<path class="st3" d="M244,85.3c-0.4-0.5-1.4-0.6-1.9-0.2c-0.5,0.4-0.8,0.7-1,1.3c0,0.1,0,0.3-0.1,0.4c0,0-0.1,0.2-0.1,0.3
			c0,0.1-0.1,0.2-0.1,0.3c0,0-0.1,0.2-0.1,0.2c-0.1,0.1-0.1,0.2-0.2,0.2c-0.2,0.2-0.1,0,0,0c-1.3,0.4-1,2.3,0.3,2.4
			c1.1,0.1,2.1-0.2,2.8-1.1C244.5,88,245,86.4,244,85.3z"/>
		<path class="st6" d="M240.9,83.9c-2.7-0.9-6.6-0.3-5.5,3c0.6,2,3.9,4.6,5.9,2.9c1-0.8,1.6-1.8,2-3
			C243.8,85.5,242.6,84.4,240.9,83.9z"/>
		<path class="st7" d="M238.8,85.7c-0.5-0.5-1.1-0.8-1.7-1c-0.5-0.2-1.1,0.1-1.3,0.5c-0.3,0.6-0.1,1.2,0.4,1.6
			c0.3,0.2,0.7,0.7,1.1,0.9C238.6,88.2,239.8,86.8,238.8,85.7z"/>
		<path class="st6" d="M241.3,84c-0.5,2.7-1.3,5.5-3.7,5.6c1.2,0.8,2.6,1.1,3.6,0.2c1-0.8,1.6-1.8,2-3
			C243.8,85.6,242.8,84.6,241.3,84z"/>
	</g>
</g>
</svg>
